<svg xmlns="http://www.w3.org/2000/svg" version="1.1" xmlns:xlink="http://www.w3.org/1999/xlink" xmlns:svgjs="http://svgjs.com/svgjs" width="512" height="512" x="0" y="0" viewBox="0 0 50 58" style="enable-background:new 0 0 512 512" xml:space="preserve" class=""><g><g id="Page-1" fill="none" fill-rule="evenodd"><g id="037---Macaroons" fill-rule="nonzero" transform="translate(0 -1)"><g fill="#26b99a"><path id="Shape" d="m49.95 45.57c-.1961855-.8685085-.941387-1.5037623-1.83-1.56.5098485-.6541545.6770197-1.5122997.45-2.31-.2228126-.7845203-.7945724-1.4226781-1.55-1.73.17-.38 1.72-4.12-3.02-6.97-.2648806-.1559227-.5386848-.2961639-.82-.42-2.4 1.11-24.35-2.33-24.35-2.33h-.01c-4.41.33-10.02 1.07-12.82 2.75-4.74 2.85-3.19 6.59-3.02 6.97-.75542758.3073219-1.32718739.9454797-1.55 1.73-.22701967.7977003-.05984851 1.6558455.45 2.31-.99416748.0590059-1.79253643.8421634-1.87065396 1.835012s.58794775 1.891228 1.56065396 2.104988c.04.01.17.04.39.08-.95939175 1.163083-.9296982 2.8513734.07 3.98-.00920046-.005373-.01941585-.0087781-.03-.01 0 0 1 7 15 7h16c14 0 15-7 15-7-.0105842.0012219-.0207995.004627-.03.01.9996982-1.1286266 1.0293917-2.816917.07-3.98.22-.04.35-.07.39-.08.5178358-.1128671.9693448-.4274418 1.2546134-.8741124.2852687-.4466707.3807757-.988608.2653866-1.5058876z" fill="#26b99a" data-original="#26b99a" class=""></path><path id="Shape" d="m48 52s-1 7-15 7h-16c-14 0-15-7-15-7 .01058415.0012219.02079954.004627.03.01 7.59274778 1.2637686 15.2730378 1.9291485 22.97 1.99 7.6969622-.0608515 15.3772522-.7262314 22.97-1.99.0092005-.005373.0194158-.0087781.03-.01z" fill="#26b99a" data-original="#26b99a" class=""></path><path id="Shape" d="m47.02 39.97c-.0051694.010921-.0119073.0210278-.02.03 0 0-7 2-22 2s-22-2-22-2c-.00809268-.0089722-.01483055-.019079-.02-.03-.17-.38-1.72-4.12 3.02-6.97 2.8-1.68 8.41-2.42 12.82-2.75h.01s21.95 3.44 24.35 2.33c.2813152.1238361.5551194.2640773.82.42 4.74 2.85 3.19 6.59 3.02 6.97z" fill="#26b99a" data-original="#26b99a" class=""></path></g><path id="Shape" d="m48.43 47.95c-.04.01-.17.04-.39.08-7.5992339 1.3926681-15.3146459 2.0523626-23.04 1.97-7.7253541.0823626-15.44076614-.5773319-23.04-1.97-.22-.04-.35-.07-.39-.08-.97270621-.21376-1.63877149-1.1121394-1.56065396-2.104988s.87648648-1.7760061 1.87065396-1.835012c.18429213-.0162468.36999788-.0027409.55.04 7.44212066 1.3816707 15.001183 2.0347577 22.57 1.95 7.568817.0847577 15.1278793-.5683293 22.57-1.95.1800021-.0427409.3657079-.0562468.55-.04.9941675.0590059 1.7925364.8421634 1.870654 1.835012.0781175.9928486-.5879478 1.891228-1.560654 2.104988z" fill="#81ccb8" data-original="#81ccb8" class=""></path><path id="Shape" d="m48.12 44.01c-.1842921-.0162468-.3699979-.0027409-.55.04-7.4421207 1.3816707-15.001183 2.0347577-22.57 1.95-7.568817.0847577-15.12787934-.5683293-22.57-1.95-.18000212-.0427409-.36570787-.0562468-.55-.04-.50984851-.6541545-.67701967-1.5122997-.45-2.31.22281261-.7845203.79457242-1.4226781 1.55-1.73.00516945.010921.01190732.0210278.02.03 0 0 7 2 22 2s22-2 22-2c.0080927-.0089722.0148306-.019079.02-.03.7554276.3073219 1.3271874.9454797 1.55 1.73.2270197.7977003.0598485 1.6558455-.45 2.31z" fill="#33907c" data-original="#33907c" class=""></path><path id="Shape" d="m48.74 49.99c-.0026288.7445389-.2763566 1.4626301-.77 2.02-7.5927478 1.2637686-15.2730378 1.9291485-22.97 1.99-7.6969622-.0608515-15.37725222-.7262314-22.97-1.99-.9996982-1.1286266-1.02939175-2.816917-.07-3.98 7.59923386 1.3926681 15.3146459 2.0523626 23.04 1.97 7.7253541.0823626 15.4407661-.5773319 23.04-1.97.4569776.5504507.7048872 1.2445976.7 1.96z" fill="#33907c" data-original="#33907c" class=""></path><path id="Shape" d="m48.57 21.63c.6361196-.5273761.9848109-1.3249148.94-2.15-.0438609-.814604-.4607459-1.5635213-1.13-2.03.26-.34 2.58-3.65-1.4-7.46-4.21-4.03-17.86-7.14-17.86-7.14s-13.66-3.1-19.2-1.28c-5.26 1.73-4.56 5.72-4.48 6.13h-.01c-.80095549.13610578-1.49647942.62922857-1.89 1.34-.40225637.72584791-.4283395 1.601496-.07 2.35-.98258446-.1594413-1.93285667.4279897-2.2294842 1.3782033-.29662752.9502136.15069373 1.9739305 1.0494842 2.4017967.04.02.16.08.36.16-1.18079189.9260631-1.52650664 2.5661002-.82 3.89-.00519047-.0057054-.01232143-.0092708-.02-.01 0 0-.57 7.05 13.08 10.15l3.93.89h.01l3.86.88 7.8 1.78c6.35 1.44 10.29.78 12.69-.33 1.5147453-.5948528 2.7572141-1.726959 3.49-3.18h-.02c.5965481-.4365141 1.0183604-1.0710049 1.19-1.79.164348-.6978381.0757592-1.4313536-.25-2.07.22.01.36.01.4.01.9991864.0101699 1.8525621-.718688 1.9988164-1.7071649.1462542-.9884769-.459496-1.9332259-1.4188164-2.2128351z" fill="#ff5364" data-original="#ff5364" class=""></path><path id="Shape" d="m46.67 29.4c-.7327859 1.453041-1.9752547 2.5851472-3.49 3.18-2.4 1.11-6.34 1.77-12.69.33l-7.8-1.78-3.86-.88h-.01l-3.93-.89c-13.65-3.1-13.08-10.15-13.08-10.15.00767857.0007292.01480953.0042946.02.01h.01c7.12286092 2.9221938 14.4657757 5.2762066 21.96 7.04 7.5215399 1.6498752 15.1622232 2.6998422 22.85 3.14z" fill="#ff5364" data-original="#ff5364" class=""></path><path id="Shape" d="m48.38 17.45-.03.03s-7.26.4-21.89-2.92-21.01-6.83-21.01-6.83c-.00122189-.01058415-.00462702-.02079954-.01-.03-.08-.41-.78-4.4 4.48-6.13 5.54-1.82 19.2 1.28 19.2 1.28s13.65 3.11 17.86 7.14c3.98 3.81 1.66 7.12 1.4 7.46z" fill="#ff5364" data-original="#ff5364" class=""></path><path id="Shape" d="m50 23.56c-.00078.5310149-.2134405 1.0397624-.5907979 1.413365-.3773574.3736025-.8882059.5811651-1.4192021.576635-.04 0-.18 0-.4-.01-7.7170181-.3301535-15.3850132-1.3949668-22.9-3.18-7.554079-1.6349802-14.93437956-3.9890416-22.04-7.03-.2-.08-.32-.14-.36-.16-.89879047-.4278662-1.34611172-1.4515831-1.0494842-2.4017967.29662753-.9502136 1.24689974-1.5376446 2.2294842-1.3782033.1842225.024015.36326279.0780649.53.16 6.9472028 3.0019097 14.171678 5.3162873 21.57 6.91 7.3611496 1.7603058 14.8770428 2.7952483 22.44 3.09.1894204.001288.3777958.0281987.56.08.8529359.2535841 1.4357539 1.0401846 1.43 1.93z" fill="#f9eab0" data-original="#f9eab0" class=""></path><path id="Shape" d="m49.51 19.48c.0448109.8250852-.3038804 1.6226239-.94 2.15-.1822042-.0518013-.3705796-.078712-.56-.08-7.5629572-.2947517-15.0788504-1.3296942-22.44-3.09-7.398322-1.5937127-14.6227972-3.9080903-21.57-6.91-.16673721-.0819351-.3457775-.135985-.53-.16-.3583395-.748504-.33225637-1.62415209.07-2.35.39352058-.71077143 1.08904451-1.20389422 1.89-1.34h.01c.00537298.00920046.00877811.01941585.01.03 0 0 6.38 3.5 21.01 6.83s21.89 2.92 21.89 2.92l.03-.03c.6692541.4664787 1.0861391 1.215396 1.13 2.03z" fill="#802d40" data-original="#802d40" class=""></path><path id="Shape" d="m47.84 27.61c-.1716396.7189951-.5934519 1.3534859-1.19 1.79-7.6877768-.4401578-15.3284601-1.4901248-22.85-3.14-7.4942243-1.7637934-14.83713908-4.1178062-21.96-7.04h-.01c-.70650664-1.3238998-.36079189-2.9639369.82-3.89 7.10562044 3.0409584 14.485921 5.3950198 22.04 7.03 7.5149868 1.7850332 15.1829819 2.8498465 22.9 3.18.3257592.6386464.414348 1.3721619.25 2.07z" fill="#802d40" data-original="#802d40" class=""></path></g></g></g></svg>