<svg xmlns="http://www.w3.org/2000/svg" version="1.1" xmlns:xlink="http://www.w3.org/1999/xlink" xmlns:svgjs="http://svgjs.com/svgjs" width="512" height="512" x="0" y="0" viewBox="0 0 512 512" style="enable-background:new 0 0 512 512" xml:space="preserve" class=""><g><g id="Soft_x5F_drink_x5F_can"><g><ellipse cx="256" cy="442.619" fill="#f03974" rx="135.055" ry="51.043" data-original="#f03974"></ellipse><path d="m313.837 199.497c-19.76 32.64-49.06 62.15-92.42 80.3-49.56 20.74-85.42 49.64-111.19 78.89v-210.11c0 36.17 73.33 55.09 145.77 55.09 19.71 0 39.49-1.4 57.84-4.17z" fill="#ff8eb9" data-original="#ff8eb9" class=""></path><path d="m401.777 148.577v270.28c0 36.17-73.34 55.09-145.78 55.09s-145.77-18.92-145.77-55.09v-60.17c25.77-29.25 61.63-58.15 111.19-78.89 43.36-18.15 72.66-47.66 92.42-80.3 49.08-7.4 87.94-24.59 87.94-50.92z" fill="#ff78ad" data-original="#ff78ad" class=""></path><path d="m342.617 130.087c-6.03 22.83-15.13 46.87-28.78 69.41-18.35 2.77-38.13 4.17-57.84 4.17-72.44 0-145.77-18.92-145.77-55.09 0-5.68 1.81-10.94 5.14-15.77 10.27-19.4 15.49-36.47 16.04-38.29-.01.14-.01.29-.01.43 0 31.25 62.68 47.61 124.6 47.61 31.45 0 63.09-4.22 86.62-12.47z" fill="#ffaecb" data-original="#ffaecb"></path><path d="m401.777 148.577c0 26.33-38.86 43.52-87.94 50.92 13.65-22.54 22.75-46.58 28.78-69.41 22.8-7.99 37.98-19.77 37.98-35.14 0-.19 0-.39-.01-.58l.01-.01s5.28 18.13 16.27 38.81c1.08 1.6 1.98 3.25 2.71 4.95 1.43 3.31 2.2 6.79 2.2 10.46z" fill="#ff8eb9" data-original="#ff8eb9" class=""></path><path d="m347.027 111.087c-.625 3.1-1.303 6.238-2.036 9.406s-1.524 6.369-2.374 9.594c-11.765 4.125-25.558 7.242-40.34 9.329s-30.555 3.141-46.28 3.141c-30.96 0-62.11-4.09-85.52-12.086s-39.08-19.899-39.08-35.524v-8.69-8.69c0 15.63 15.67 27.533 39.08 35.528s54.56 12.083 85.52 12.083c16.73 0 33.515-1.193 49.104-3.55s29.981-5.881 41.926-10.541z" fill="#ff78ad" data-original="#ff78ad" class=""></path><path d="m380.597 94.357h-.01-.01c.005.1.01.197.014.295s.006.195.006.295c0 7.685-3.795 14.473-10.44 20.338s-16.14 10.808-27.54 14.803c.85-3.225 1.64-6.425 2.374-9.594s1.411-6.306 2.036-9.406c10.165-3.97 18.557-8.758 24.409-14.349s9.161-11.986 9.161-19.171v8.395z" fill="#ff5e91" data-original="#ff5e91"></path><path d="m401.78 230.437s-111.589 2.637-145.765 101.916c0 0 72.882-58.642 145.765-12.552z" fill="#f9d65b" data-original="#f9d65b"></path><path d="m134.187 334.487c-8.82 7.93-16.78 16.05-23.96 24.2v-51.11s7.79 14.28 23.96 26.91z" fill="#ffecb1" data-original="#ffecb1"></path><path d="m256.007 332.357c-.36 1.32-26.32 93.91-145.78 74.77v-48.44c7.18-8.15 15.14-16.27 23.96-24.2 23.03 18.01 63.08 32.66 121.82-2.13z" fill="#f9d65b" data-original="#f9d65b"></path><path d="m256 125.178c-30.959 0-62.109-4.089-85.519-12.084s-39.081-19.899-39.081-35.528 15.67-27.532 39.081-35.528 54.56-12.084 85.519-12.084 62.109 4.089 85.519 12.084 39.081 19.899 39.081 35.528-15.67 27.532-39.081 35.528-54.56 12.084-85.519 12.084z" fill="#87d2ed" data-original="#87d2ed"></path><path d="m358.396 76.512c0 1.789-.414 3.544-1.213 5.258s-1.982 3.385-3.521 5.006c-6.539-6.9-19.504-12.85-36.56-17.075s-38.203-6.726-61.106-6.726c-22.899 0-44.043 2.5-61.098 6.726s-30.02 10.176-36.559 17.075c-1.538-1.62-2.722-3.292-3.521-5.006s-1.213-3.469-1.213-5.258c0-9.402 11.462-17.916 29.991-24.08s44.128-9.977 72.4-9.977c28.277 0 53.876 3.813 72.407 9.977 18.532 6.164 29.993 14.678 29.993 24.08z" fill="#2273d1" data-original="#2273d1"></path><path d="m353.662 86.776c-13.086 13.792-51.86 23.793-97.665 23.793-45.797 0-84.571-10.001-97.657-23.793 13.078-13.8 51.86-23.801 97.657-23.801 45.805 0 84.588 10.001 97.665 23.801z" fill="#d0eff9" data-original="#d0eff9"></path><ellipse cx="255.302" cy="86.776" fill="#162068" rx="30.515" ry="10.192" data-original="#162068"></ellipse><path d="m289.191 32.728c0-12.783-15.173-23.145-33.889-23.145-18.717 0-33.889 10.362-33.889 23.145 0 2.622.647 5.139 1.824 7.489l11.567 36.806c.934 2.972 3.689 4.994 6.804 4.994h27.389c3.115 0 5.87-2.022 6.804-4.994l11.567-36.806c1.176-2.35 1.823-4.867 1.823-7.489z" fill="#2273d1" data-original="#2273d1"></path><path d="m277.447 30.617c-7.09-.44-14.28-.66-21.45-.66-7.64 0-15.3.25-22.84.74.35-7.5 10.13-13.52 22.14-13.52 11.98 0 21.73 5.98 22.15 13.44z" fill="#ffffff" data-original="#ffffff"></path><path d="m277.467 31.127c0 7.7-9.92 13.95-22.17 13.95-12.24 0-22.16-6.25-22.16-13.95 0-.14 0-.29.02-.43 7.54-.49 15.2-.74 22.84-.74 7.17 0 14.36.22 21.45.66.02.17.02.34.02.51z" fill="#5bc1e7" data-original="#5bc1e7"></path><path d="m230.717 64.017c-2.085.18-4.142.377-6.171.595s-4.029.455-5.999.715l-3.085-9.815-3.085-9.815c1.95-.305 3.932-.592 5.946-.859s4.059-.511 6.134-.731l3.13 9.955z" fill="#0f4cb8" data-original="#0f4cb8"></path><path d="m298.297 45.487-3.095 9.835-3.095 9.835c-1.975-.25-3.98-.478-6.013-.685s-4.092-.395-6.177-.565l3.135-9.975 3.135-9.975c2.075.215 4.125.45 6.145.705s4.01.53 5.965.825z" fill="#0f4cb8" data-original="#0f4cb8"></path><g fill="#5bc1e7"><path d="m224.457 44.107c-2.075.22-4.12.465-6.134.731s-3.996.554-5.946.859l-.17-.54s-1.65-4.262-2.086-6.179-.669-3.866-.694-5.841c1.97-.28 3.958-.542 5.961-.785 2.004-.243 4.024-.465 6.059-.665-.01.17-.03.865-.03 1.04 0 1.31.16 2.595.468 3.846.307 1.251.762 2.469 1.352 3.644l.61 1.945z" fill="#5bc1e7" data-original="#5bc1e7"></path><path d="m301.187 32.947c-.015 2.005-.243 3.988-.68 5.936s-2.075 6.169-2.075 6.169l-.135.435c-1.955-.295-3.945-.57-5.965-.825s-4.07-.49-6.145-.705l.59-1.87.59-1.87c.59-1.175 1.045-2.393 1.352-3.644.308-1.251.468-2.536.468-3.846 0-.2-.025-.985-.04-1.18 2.035.195 4.057.41 6.065.644s4 .486 5.975.756z" fill="#5bc1e7" data-original="#5bc1e7"></path></g></g></g></g></svg>