<svg xmlns="http://www.w3.org/2000/svg" version="1.1" xmlns:xlink="http://www.w3.org/1999/xlink" xmlns:svgjs="http://svgjs.com/svgjs" width="512" height="512" x="0" y="0" viewBox="0 0 64 64" style="enable-background:new 0 0 512 512" xml:space="preserve" class=""><g><g id="Layer_19" data-name="Layer 19"><path d="m41 24-5 38h-26l-5-38" fill="#f9d266" data-original="#f9d266"></path><path d="m32 58 4.474-34h-31.474l4.474 34z" fill="#fce797" data-original="#fce797" class=""></path><path d="m37.316 52h-28.632l-1.71-13h32.052z" fill="#f4a93c" data-original="#f4a93c"></path><path d="m37.316 52h-28.632l-1.71-13h32.052z" fill="#f4a93c" data-original="#f4a93c"></path><path d="m34.446 39h-27.472s.4 3.018.789 6h22.386a4 4 0 0 0 3.965-3.474z" fill="#f6b940" data-original="#f6b940" class=""></path><path d="m2 18h42v6h-42z" fill="#b52f28" data-original="#b52f28"></path><path d="m41 20v-2h-39v3h38a1 1 0 0 0 1-1z" fill="#d23f34" data-original="#d23f34"></path><path d="m14 10h48v4h-48z" fill="#b5b5b5" data-original="#b5b5b5"></path><path d="m60 11v-1h-46v2h45a1 1 0 0 0 1-1z" fill="#cccccc" data-original="#cccccc"></path><g fill="#f9d266"><path d="m19.293 36.707-1.293-1.293a3.415 3.415 0 0 1 0-4.829l.586-.585a1.415 1.415 0 0 0 0-2l-.586-.586a3.415 3.415 0 0 1 0-4.829l.586-.585a1.415 1.415 0 0 0 0-2l-.586-.586a3.415 3.415 0 0 1 0-4.829l.586-.585a1.415 1.415 0 0 0 0-2l-.586-.586a3.415 3.415 0 0 1 0-4.829l2.293-2.292 1.414 1.414-2.293 2.293a1.415 1.415 0 0 0 0 2l.586.586a3.415 3.415 0 0 1 0 4.829l-.586.585a1.415 1.415 0 0 0 0 2l.586.586a3.415 3.415 0 0 1 0 4.829l-.586.585a1.415 1.415 0 0 0 0 2l.586.586a3.415 3.415 0 0 1 0 4.829l-.586.585a1.415 1.415 0 0 0 0 2l1.293 1.293z" fill="#f9d266" data-original="#f9d266"></path><path d="m24.293 36.707-1.293-1.293a3.415 3.415 0 0 1 0-4.829l.586-.585a1.415 1.415 0 0 0 0-2l-.586-.586a3.415 3.415 0 0 1 0-4.829l.586-.585a1.415 1.415 0 0 0 0-2l-.586-.586a3.415 3.415 0 0 1 0-4.829l.586-.585a1.415 1.415 0 0 0 0-2l-.586-.586a3.415 3.415 0 0 1 0-4.829l2.293-2.292 1.414 1.414-2.293 2.293a1.415 1.415 0 0 0 0 2l.586.586a3.415 3.415 0 0 1 0 4.829l-.586.585a1.415 1.415 0 0 0 0 2l.586.586a3.415 3.415 0 0 1 0 4.829l-.586.585a1.415 1.415 0 0 0 0 2l.586.586a3.415 3.415 0 0 1 0 4.829l-.586.585a1.415 1.415 0 0 0 0 2l1.293 1.293z" fill="#f9d266" data-original="#f9d266"></path><path d="m29.293 36.707-1.293-1.293a3.415 3.415 0 0 1 0-4.829l.586-.585a1.415 1.415 0 0 0 0-2l-.586-.586a3.415 3.415 0 0 1 0-4.829l.586-.585a1.415 1.415 0 0 0 0-2l-.586-.586a3.415 3.415 0 0 1 0-4.829l.586-.585a1.415 1.415 0 0 0 0-2l-.586-.586a3.415 3.415 0 0 1 0-4.829l2.293-2.292 1.414 1.414-2.293 2.293a1.415 1.415 0 0 0 0 2l.586.586a3.415 3.415 0 0 1 0 4.829l-.586.585a1.415 1.415 0 0 0 0 2l.586.586a3.415 3.415 0 0 1 0 4.829l-.586.585a1.415 1.415 0 0 0 0 2l.586.586a3.415 3.415 0 0 1 0 4.829l-.586.585a1.415 1.415 0 0 0 0 2l1.293 1.293z" fill="#f9d266" data-original="#f9d266"></path></g><path d="m14 2h48v4h-48z" fill="#b5b5b5" data-original="#b5b5b5"></path><path d="m60 3v-1h-46v2h45a1 1 0 0 0 1-1z" fill="#cccccc" data-original="#cccccc"></path></g></g></svg>