<svg xmlns="http://www.w3.org/2000/svg" version="1.1" xmlns:xlink="http://www.w3.org/1999/xlink" xmlns:svgjs="http://svgjs.com/svgjs" width="512" height="512" x="0" y="0" viewBox="0 0 682.66669 682.66669" style="enable-background:new 0 0 512 512" xml:space="preserve" class=""><g><defs id="defs1573"><clipPath clipPathUnits="userSpaceOnUse" id="clipPath1583"><path d="M 0,512 H 512 V 0 H 0 Z" id="path1581" fill="#000000" data-original="#000000"></path></clipPath></defs><g id="g1575" transform="matrix(1.3333333,0,0,-1.3333333,0,682.66667)"><g id="g1577"><g id="g1579" clip-path="url(#clipPath1583)"><g id="g1585" transform="translate(471.0093,115.0352)"><path d="m 0,0 h -430.019 c -18.536,0 -33.563,15.026 -33.563,33.563 v 6.608 c 0,18.536 15.027,33.563 33.563,33.563 L 0,73.734 c 18.537,0 33.563,-15.027 33.563,-33.563 V 33.563 C 33.563,15.026 18.537,0 0,0" style="fill-opacity:1;fill-rule:nonzero;stroke:none" id="path1587" fill="#e94444" data-original="#e94444" class=""></path></g><g id="g1589" transform="translate(471.0093,246.8374)"><path d="m 0,0 h -430.019 c -18.536,0 -33.563,15.026 -33.563,33.563 v 6.608 c 0,18.536 15.027,33.563 33.563,33.563 L 0,73.734 c 18.537,0 33.563,-15.027 33.563,-33.563 V 33.563 C 33.563,15.026 18.537,0 0,0" style="fill-opacity:1;fill-rule:nonzero;stroke:none" id="path1591" fill="#9e5528" data-original="#9e5528" class=""></path></g><g id="g1593" transform="translate(504.5703,155.21)"><path d="M 0,0 V -6.61 C 0,-25.15 -15.02,-40.18 -33.56,-40.18 H -53.2 c 18.54,0 33.56,15.03 33.56,33.57 V 0 c 0,18.53 -15.02,33.56 -33.56,33.56 h 19.64 C -15.02,33.56 0,18.53 0,0" style="fill-opacity:1;fill-rule:nonzero;stroke:none" id="path1595" fill="#d83131" data-original="#d83131"></path></g><g id="g1597" transform="translate(504.5703,287.0103)"><path d="M 0,0 V -6.61 C 0,-25.15 -15.02,-40.17 -33.56,-40.17 H -53.2 c 18.54,0 33.56,15.02 33.56,33.56 V 0 c 0,18.53 -15.02,33.56 -33.56,33.56 h 19.64 C -15.02,33.56 0,18.53 0,0" style="fill-opacity:1;fill-rule:nonzero;stroke:none" id="path1599" fill="#904d24" data-original="#904d24" class=""></path></g><g id="g1601" transform="translate(256,503.8154)"><path d="m 0,0 c -167.632,-2.426 -223.954,-93.358 -242.547,-146.193 -6.371,-18.104 7.213,-37.051 26.405,-37.051 H 0 216.14 c 19.335,0 32.744,19.138 26.296,37.366 C 223.73,-92.998 167.3,-2.421 0,0" style="fill-opacity:1;fill-rule:nonzero;stroke:none" id="path1603" fill="#fe9738" data-original="#fe9738" class=""></path></g><g id="g1605" transform="translate(472.1401,320.5698)"><path d="M 0,0 H -2.39 C 4.12,7.26 6.8,17.83 3.17,28.11 -15.54,81 -71.97,171.57 -239.27,173.99 c -43.28,-0.62 -79.15,-7.15 -108.85,-17.4 33.68,15.47 76.8,25.86 131.98,26.66 C -48.84,180.82 7.59,90.25 26.3,37.37 32.74,19.14 19.33,0 0,0" style="fill-opacity:1;fill-rule:nonzero;stroke:none" id="path1607" fill="#fe860a" data-original="#fe860a"></path></g><g id="g1609" transform="translate(471.0093,115.0352)"><path d="m 0,0 h -215.009 -215.01 c 0,0 -14.829,-71.608 69.559,-99.778 14.456,-4.826 29.548,-7.073 44.682,-7.073 h 100.769 100.769 c 15.134,0 30.225,2.247 44.681,7.073 C 14.83,-71.608 0,0 0,0" style="fill-opacity:1;fill-rule:nonzero;stroke:none" id="path1611" fill="#fe9738" data-original="#fe9738" class=""></path></g><g id="g1613" transform="translate(401.4502,15.2603)"><path d="m 0,0 c -14.46,-4.83 -29.55,-7.08 -44.68,-7.08 h -22.78 c 15.14,0 30.23,2.25 44.69,7.08 84.38,28.17 69.55,99.77 69.55,99.77 H 69.56 C 69.56,99.77 84.39,28.17 0,0" style="fill-opacity:1;fill-rule:nonzero;stroke:none" id="path1615" fill="#fe860a" data-original="#fe860a"></path></g><g id="g1617" transform="translate(131.4839,480.4419)"><path d="m 0,0 c -73.993,-31.031 -105.115,-86.117 -118.031,-122.82 -6.371,-18.104 7.213,-37.051 26.405,-37.051 h 216.142 216.14 c 19.335,0 32.744,19.138 26.296,37.366 C 348.246,-69.624 291.816,20.952 124.516,23.374 89.284,22.864 58.968,18.444 32.887,11.29" style="stroke-width:15;stroke-linecap:round;stroke-linejoin:round;stroke-miterlimit:10;stroke-dasharray:none;stroke-opacity:1" id="path1619" fill="none" stroke="#000000" stroke-width="15" stroke-linecap="round" stroke-linejoin="round" stroke-miterlimit="10" stroke-dasharray="none" stroke-opacity="" data-original="#000000" class=""></path></g><g id="g1621" transform="translate(471.0093,246.8374)"><path d="m 0,0 h -430.019 c -18.536,0 -33.563,15.026 -33.563,33.563 v 6.608 c 0,18.536 15.027,33.563 33.563,33.563 L 0,73.734 c 18.537,0 33.563,-15.027 33.563,-33.563 V 33.563 C 33.563,15.026 18.537,0 0,0 Z" style="stroke-width:15;stroke-linecap:round;stroke-linejoin:round;stroke-miterlimit:10;stroke-dasharray:none;stroke-opacity:1" id="path1623" fill="none" stroke="#000000" stroke-width="15" stroke-linecap="round" stroke-linejoin="round" stroke-miterlimit="10" stroke-dasharray="none" stroke-opacity="" data-original="#000000" class=""></path></g><g id="g1625" transform="translate(471.0093,115.0352)"><path d="m 0,0 h -430.019 c -18.536,0 -33.563,15.026 -33.563,33.563 v 6.608 c 0,18.536 15.027,33.563 33.563,33.563 L 0,73.734 c 18.537,0 33.563,-15.027 33.563,-33.563 V 33.563 C 33.563,15.026 18.537,0 0,0 Z" style="stroke-width:15;stroke-linecap:round;stroke-linejoin:round;stroke-miterlimit:10;stroke-dasharray:none;stroke-opacity:1" id="path1627" fill="none" stroke="#000000" stroke-width="15" stroke-linecap="round" stroke-linejoin="round" stroke-miterlimit="10" stroke-dasharray="none" stroke-opacity="" data-original="#000000" class=""></path></g><g id="g1629" transform="translate(471.7959,175.4009)"><path d="m 0,0 c 0,-16.757 -19.471,-25.841 -32.417,-15.201 -5.321,4.374 -11.606,7.84 -21.565,7.84 -26.988,0 -26.988,-21.378 -53.976,-21.378 -26.988,0 -26.988,21.378 -53.976,21.378 -26.987,0 -26.987,-21.378 -53.974,-21.378 -26.987,0 -26.987,21.378 -53.974,21.378 -26.988,0 -26.988,-21.378 -53.976,-21.378 -26.987,0 -26.987,21.378 -53.974,21.378 -9.956,0 -16.239,-3.464 -21.559,-7.836 -12.946,-10.639 -32.417,-1.557 -32.417,15.2 V 39.661 H 0 Z" style="fill-opacity:1;fill-rule:nonzero;stroke:none" id="path1631" fill="#bbec6c" data-original="#bbec6c" class=""></path></g><g id="g1633" transform="translate(471.8003,215.0601)"><path d="m 0,0 v -39.66 c 0,-15.68 -17.05,-24.64 -29.84,-17.01 5.65,3.3 9.71,9.35 9.71,17.01 V 0 Z" style="fill-opacity:1;fill-rule:nonzero;stroke:none" id="path1635" fill="#a2e62e" data-original="#a2e62e"></path></g><g id="g1637" transform="translate(471.7959,215.062)"><path d="m 0,0 v -39.661 c 0,-16.757 -19.471,-25.841 -32.417,-15.201 -5.321,4.374 -11.606,7.84 -21.565,7.84 -26.988,0 -26.988,-21.378 -53.976,-21.378 -26.988,0 -26.988,21.378 -53.976,21.378 -26.987,0 -26.987,-21.378 -53.974,-21.378 -26.987,0 -26.987,21.378 -53.974,21.378 -26.988,0 -26.988,-21.378 -53.976,-21.378 -26.987,0 -26.987,21.378 -53.974,21.378 -9.956,0 -16.239,-3.464 -21.559,-7.836 -12.946,-10.64 -32.417,-1.557 -32.417,15.2 V 0" style="stroke-width:15;stroke-linecap:round;stroke-linejoin:round;stroke-miterlimit:10;stroke-dasharray:none;stroke-opacity:1" id="path1639" fill="none" stroke="#000000" stroke-width="15" stroke-linecap="round" stroke-linejoin="round" stroke-miterlimit="10" stroke-dasharray="none" stroke-opacity="" data-original="#000000" class=""></path></g><g id="g1641" transform="translate(471.0093,115.0352)"><path d="m 0,0 h -215.009 -215.01 c 0,0 -14.829,-71.608 69.559,-99.778 14.456,-4.826 29.548,-7.073 44.682,-7.073 h 100.769 100.769 c 15.134,0 30.225,2.247 44.681,7.073 C 14.83,-71.608 0,0 0,0 Z" style="stroke-width:15;stroke-linecap:round;stroke-linejoin:round;stroke-miterlimit:10;stroke-dasharray:none;stroke-opacity:1" id="path1643" fill="none" stroke="#000000" stroke-width="15" stroke-linecap="round" stroke-linejoin="round" stroke-miterlimit="10" stroke-dasharray="none" stroke-opacity="" data-original="#000000" class=""></path></g><g id="g1645" transform="translate(186.8125,434.207)"><path d="M 0,0 6.506,12.039" style="stroke-width:15;stroke-linecap:round;stroke-linejoin:round;stroke-miterlimit:10;stroke-dasharray:none;stroke-opacity:1" id="path1647" fill="none" stroke="#000000" stroke-width="15" stroke-linecap="round" stroke-linejoin="round" stroke-miterlimit="10" stroke-dasharray="none" stroke-opacity="" data-original="#000000" class=""></path></g><g id="g1649" transform="translate(255.9102,433.3843)"><path d="M 0,0 V 13.684" style="stroke-width:15;stroke-linecap:round;stroke-linejoin:round;stroke-miterlimit:10;stroke-dasharray:none;stroke-opacity:1" id="path1651" fill="none" stroke="#000000" stroke-width="15" stroke-linecap="round" stroke-linejoin="round" stroke-miterlimit="10" stroke-dasharray="none" stroke-opacity="" data-original="#000000" class=""></path></g><g id="g1653" transform="translate(325.1875,434.3076)"><path d="M 0,0 -6.865,11.837" style="stroke-width:15;stroke-linecap:round;stroke-linejoin:round;stroke-miterlimit:10;stroke-dasharray:none;stroke-opacity:1" id="path1655" fill="none" stroke="#000000" stroke-width="15" stroke-linecap="round" stroke-linejoin="round" stroke-miterlimit="10" stroke-dasharray="none" stroke-opacity="" data-original="#000000" class=""></path></g><g id="g1657" transform="translate(40.2041,246.8374)"><path d="m 0,0 v -32.071 h 46.292 c 9.63,0 17.437,-7.807 17.437,-17.437 v -92.367 c 0,-12.312 9.981,-22.294 22.293,-22.294 12.313,0 22.294,9.982 22.294,22.294 v 92.367 c 0,9.63 7.807,17.437 17.437,17.437 H 431.592 V 0 Z" style="fill-opacity:1;fill-rule:nonzero;stroke:none" id="path1659" fill="#fee45a" data-original="#fee45a" class=""></path></g><path d="m 471.8,214.77 h -20.13 v 32.07 h 20.13 z" style="fill-opacity:1;fill-rule:nonzero;stroke:none" id="path1661" fill="#fddf30" data-original="#fddf30"></path><g id="g1663" transform="translate(313.8042,214.7661)"><path d="M 0,0 H 157.992 V 32.071 H -273.6 V 0 h 46.291 c 9.631,0 17.438,-7.807 17.438,-17.437 v -92.367 c 0,-12.312 9.981,-22.294 22.293,-22.294 12.313,0 22.294,9.982 22.294,22.294 v 92.367 c 0,9.63 7.807,17.437 17.437,17.437 h 112.678" style="stroke-width:15;stroke-linecap:round;stroke-linejoin:round;stroke-miterlimit:10;stroke-dasharray:none;stroke-opacity:1" id="path1665" fill="none" stroke="#000000" stroke-width="15" stroke-linecap="round" stroke-linejoin="round" stroke-miterlimit="10" stroke-dasharray="none" stroke-opacity="" data-original="#000000" class=""></path></g></g></g></g></g></svg>