<svg xmlns="http://www.w3.org/2000/svg" version="1.1" xmlns:xlink="http://www.w3.org/1999/xlink" xmlns:svgjs="http://svgjs.com/svgjs" width="512" height="512" x="0" y="0" viewBox="0 0 512 512" style="enable-background:new 0 0 512 512" xml:space="preserve" class=""><g>
<rect x="21.018" y="217.584" style="" width="469.763" height="225.352" fill="#fdca74" data-original="#fdca74" class=""></rect>
<g>
	<rect x="21.53" y="238.6" style="" width="469.247" height="30.382" fill="#e6b25b" data-original="#e6b25b" class=""></rect>
	<rect x="21.53" y="351.106" style="" width="469.247" height="30.382" fill="#e6b25b" data-original="#e6b25b" class=""></rect>
</g>
<path style="" d="M351.984,62.395c-19-5.38-39.307-3.631-57.161,4.804c0,0-264.251,123.514-281.986,131.015
	c-7.706,3.26-13.064,10.984-12.829,19.93c0.301,11.472,10.046,20.453,21.523,20.453h437.251c8.949,0,16.197,7.255,16.197,16.204
	v38.231c0,8.949-7.255,16.204-16.204,16.204H21.018C9.41,309.238,0,318.648,0,330.256l0,0c0,11.608,9.41,21.018,21.018,21.018
	h437.757c8.949,0,16.204,7.255,16.204,16.204v38.231c0,8.949-7.255,16.204-16.204,16.204H21.018C9.41,421.913,0,431.323,0,442.931
	l0,0c0,11.608,9.41,21.018,21.018,21.018h460.011c17.105,0,30.971-13.866,30.971-30.971V238.6
	C512,122.674,406.495,77.829,351.984,62.395z" fill="#a8503c" data-original="#a8503c" class=""></path>
<path style="" d="M351.984,62.395c-10.642-3.013-21.694-3.787-32.495-2.405c3.997,0.507,7.973,1.296,11.891,2.405
	c54.511,15.434,160.016,60.279,160.016,176.204v194.378c0,17.105-13.866,30.971-30.971,30.971h20.604
	c17.105,0,30.971-13.866,30.971-30.971V238.6C512,122.674,406.495,77.829,351.984,62.395z" fill="#993e29" data-original="#993e29" class=""></path>
<path style="" d="M284.539,152.971c-0.477,0-0.961-0.044-1.446-0.136c-4.19-0.794-6.945-4.833-6.155-9.023
	c0.061-0.329,3.206-17.721,0.207-36.489c-3.775-23.628-15.257-38.479-34.126-44.142c-4.088-1.226-6.407-5.534-5.18-9.621
	s5.534-6.407,9.621-5.18c24.807,7.444,40.371,27.131,45.012,56.931c3.338,21.441-0.198,40.566-0.35,41.37
	C291.419,150.387,288.178,152.971,284.539,152.971z" fill="#de4b51" data-original="#de4b51"></path>
<circle style="" cx="284.526" cy="145.244" r="38.782" fill="#f9545b" data-original="#f9545b"></circle>
<g>
</g>
<g>
</g>
<g>
</g>
<g>
</g>
<g>
</g>
<g>
</g>
<g>
</g>
<g>
</g>
<g>
</g>
<g>
</g>
<g>
</g>
<g>
</g>
<g>
</g>
<g>
</g>
<g>
</g>
</g>
</svg>