<?xml version="1.0" encoding="UTF-8"?><svg id="Calque_1" xmlns="http://www.w3.org/2000/svg" xmlns:xlink="http://www.w3.org/1999/xlink" viewBox="0 0 1024 768"><defs><style>.cls-1{fill:#eae8e9;}.cls-2{fill:url(#Dégradé_sans_nom_3);}.cls-3{fill:url(#Dégradé_sans_nom_3-3);}.cls-4{fill:url(#Dégradé_sans_nom_3-2);}</style><linearGradient id="Dégradé_sans_nom_3" x1="94.05" y1="3.54" x2="94.05" y2="11.7" gradientTransform="matrix(1, 0, 0, 1, 0, 0)" gradientUnits="userSpaceOnUse"><stop offset="0" stop-color="#fff"/><stop offset="0" stop-color="#fcfcfc"/><stop offset=".03" stop-color="#c8c8c8"/><stop offset=".06" stop-color="#999"/><stop offset=".09" stop-color="#707070"/><stop offset=".13" stop-color="#4d4d4d"/><stop offset=".16" stop-color="#313131"/><stop offset=".2" stop-color="#1b1b1b"/><stop offset=".24" stop-color="#0b0b0b"/><stop offset=".29" stop-color="#020202"/><stop offset=".36" stop-color="#000"/></linearGradient><linearGradient id="Dégradé_sans_nom_3-2" x1="173.36" x2="173.36" xlink:href="#Dégradé_sans_nom_3"/><linearGradient id="Dégradé_sans_nom_3-3" x1="35.01" y1="59.08" x2="35.01" y2="67.24" gradientTransform="translate(-56.19 114.27) rotate(-90)" xlink:href="#Dégradé_sans_nom_3"/></defs><path class="cls-2" d="M131.82,5.87v3.51c0,1.29-1.03,2.33-2.3,2.33H58.58c-1.27,0-2.3-1.04-2.3-2.33v-3.51c0-1.29,1.03-2.33,2.3-2.33h70.94c1.27,0,2.3,1.04,2.3,2.33Z"/><path class="cls-4" d="M206.36,5.87v3.51c0,1.29-.9,2.33-2.01,2.33h-61.98c-1.11,0-2.01-1.04-2.01-2.33v-3.51c0-1.29,.9-2.33,2.01-2.33h61.98c1.11,0,2.01,1.04,2.01,2.33Z"/><path class="cls-3" d="M5.21,64.15h3.51c1.29,0,2.33,.41,2.33,.92v28.37c0,.51-1.04,.92-2.33,.92h-3.51c-1.29,0-2.33-.41-2.33-.92v-28.37c0-.51,1.04-.92,2.33-.92Z"/><rect class="cls-1" x="5.81" y="5.88" width="1012.39" height="761.12" rx="25.35" ry="25.35"/></svg>